magnet:?xt=urn:btih:6s6ulrv2xokhoyaggiqz6pnzow4fyhvf&dn=%D0%94%D0%B5%D1%82%D0%B5%D0%BA%D1%82%D0%B8%D0%B2%20%28Un%20Detective%29.mkv&xl=2992089373&fc=1

=-=-=-=-=-=-=-=-=-=-=-=-=-=-=-=-=-=-=-=-=-=-=-=-=-=-=-=-=-=-=-=-=-=-=-=-=-=-=-=-=-=-=-=-=-=-=-=-=-=-=-=-=-=-=-=-=-=-=-=-=
Общее
Уникальный идентификатор                 : 95114262770546735232938263059724787087 (0x478E5736DB8E7BCDF9BDB856AEC45D8F)
Полное имя                               : F:\Video\AV1\Детектив (Un Detective).mkv
Формат                                   : Matroska
Версия формата                           : Version 4
Размер файла                             : 2,79 Гбайт
Продолжительность                        : 1 ч. 40 м.
Общий поток                              : 3 954 Кбит/сек
Частота кадров                           : 24,000 кадра/сек
Название фильма                          : Дemekmuв Бeллu / Дemekmuв / Un Detective / Detective Belli / Ring of Death / Macchie di Belletto
Кодирование произвёл                     : PlamenNik
Описание                                 : Инспектор Белли, прозванный коллегами «репей» за жесткий стиль работы, получает частный заказ от богатого адвоката «наехать» на англичанку-любовницу его юного сына Мино и вынудить ее оставить всякие мысли о богатом женихе. Начав действовать, Белли сразу натыкается на свежий труп некоего Романи, который оказывается приятелем Мино. Дальше - больше, и события начинают стремительно развиваться, втягивая детектива Белли в фатальную воронку, в конце которой его ждет дуло револьвера.
Дата выпуска                             : 1969
Дата кодирования                         : 2024-02-24 03:32:58 UTC
Программа кодирования                    : mkvmerge v78.0 ('Running') 64-bit
Библиотека кодирования                   : libebml v1.4.4 + libmatroska v1.7.1 / Lavf60.16.100
Обложка                                  : Yes
Attachments                              : cover.jpg
PUBLISHER                                : buba5473
Ссылка                                   : https://github.com/Buba5473/av1_rips

Видео
Идентификатор                            : 1
Формат                                   : AV1
Формат/Информация                        : AOMedia Video 1
Профиль формата                          : Main@L4.1
Идентификатор кодека                     : V_AV1
Продолжительность                        : 1 ч. 40 м.
Битрейт                                  : 3 376 Кбит/сек
Ширина                                   : 1 920 пикселей
Высота                                   : 1 036 пикселей
Соотношение сторон                       : 1,85:1
Режим частоты кадров                     : Постоянный
Частота кадров                           : 24,000 кадра/сек
Цветовое пространство                    : YUV
Субдискретизация насыщенности            : 4:2:0
Битовая глубина                          : 10 бит
Бит/(Пиксели*Кадры)                      : 0.071
Размер потока                            : 2,38 Гбайт (85%)
Заголовок                                : Un Detective (1969).BDRip.1080p.AV1.PlamwenNik
Язык                                     : zxx
Default                                  : Нет
Forced                                   : Нет
Цветовой диапазон                        : Limited
Основные цвета                           : BT.709
Характеристики трансфера                 : BT.709
Коэффициенты матрицы                     : BT.709

Аудио #1
Идентификатор                            : 2
Формат                                   : AC-3
Формат/Информация                        : Audio Coding 3
Коммерческое название                    : Dolby Digital
Идентификатор кодека                     : A_AC3
Продолжительность                        : 1 ч. 40 м.
Вид битрейта                             : Постоянный
Битрейт                                  : 192 Кбит/сек
Каналы                                   : 2 канала
Channel layout                           : L R
Частота                                  : 48,0 КГц
Частота кадров                           : 31,250 кадров/сек (1536 SPF)
Метод сжатия                             : С потерями
Размер потока                            : 139 Мбайт (5%)
Заголовок                                : Пepeвog: Ogнoгoлocый зakagpoвый, CCK+ (noвepx aнглuйckoгo gy6ляжa)
Язык                                     : Russian (RU)
Service kind                             : Complete Main
Default                                  : Да
Forced                                   : Нет

Аудио #2
Идентификатор                            : 3
Формат                                   : AC-3
Формат/Информация                        : Audio Coding 3
Коммерческое название                    : Dolby Digital
Идентификатор кодека                     : A_AC3
Продолжительность                        : 1 ч. 40 м.
Вид битрейта                             : Постоянный
Битрейт                                  : 384 Кбит/сек
Каналы                                   : 2 канала
Channel layout                           : L R
Частота                                  : 48,0 КГц
Частота кадров                           : 31,250 кадров/сек (1536 SPF)
Метод сжатия                             : С потерями
Размер потока                            : 277 Мбайт (10%)
Язык                                     : Italian (IT)
Service kind                             : Complete Main
Default                                  : Нет
Forced                                   : Нет

Текст
Идентификатор                            : 4
Формат                                   : UTF-8
Идентификатор кодека                     : S_TEXT/UTF8
Идентификатор кодека/Информация          : UTF-8 Plain Text
Продолжительность                        : 1 ч. 37 м.
Битрейт                                  : 57 бит/сек
Частота кадров                           : 0,170 кадр/сек
Count of elements                        : 993
Размер потока                            : 40,9 Кбайт (0%)
Язык                                     : English (US)
Default                                  : Да
Forced                                   : Нет

Меню
00:00:00.000                             : Chapter 1
00:05:00.000                             : Chapter 2
00:10:00.000                             : Chapter 3
00:15:00.000                             : Chapter 4
00:20:00.000                             : Chapter 5
00:25:00.000                             : Chapter 6
00:30:00.000                             : Chapter 7
00:35:00.000                             : Chapter 8
00:40:00.000                             : Chapter 9
00:45:00.000                             : Chapter 10
00:50:00.000                             : Chapter 11
00:55:00.000                             : Chapter 12
01:00:00.000                             : Chapter 13
01:05:00.000                             : Chapter 14
01:10:00.000                             : Chapter 15
01:15:00.000                             : Chapter 16
01:20:00.000                             : Chapter 17
01:25:00.000                             : Chapter 18
01:30:00.000                             : Chapter 19
01:35:00.000                             : Chapter 20
01:40:42.500                             : Chapter 21

